<svg xmlns="http://www.w3.org/2000/svg" style="display: none;">
  <defs>
  <linearGradient id="gradiant" x1="0%" y1="0%" x2="100%" y2="0%">
  <stop offset="0%" stop-color="#667eea" />
  <stop offset="100%" stop-color="#764ba2" />
</linearGradient>
    <!-- Icono de usuario -->
    <symbol id="user" viewBox="0 0 24 24" fill="none" stroke="currentColor" stroke-width="2" stroke-linecap="round" stroke-linejoin="round">
      <path stroke="none" d="M0 0h24v24H0z" fill="none"/>
      <path d="M8 7a4 4 0 1 0 8 0a4 4 0 0 0 -8 0" />
      <path d="M6 21v-2a4 4 0 0 1 4 -4h4a4 4 0 0 1 4 4v2" />
    </symbol>

    <!-- Icono de enviar -->
    <symbol id="send" viewBox="0 0 24 24" fill="none" stroke="currentColor" stroke-width="2" stroke-linecap="round" stroke-linejoin="round">
      <path stroke="none" d="M0 0h24v24H0z" fill="none"/>
      <path d="M10 14l11 -11" />
      <path d="M21 3l-6.5 18a.55 .55 0 0 1 -1 0l-3.5 -7l-7 -3.5a.55 .55 0 0 1 0 -1l18 -6.5" />
    </symbol>

    <symbol id="study" xmlns="http://www.w3.org/2000/svg" fill="none" viewBox="0 0 24 24" stroke-width="1.5" stroke="currentColor" class="size-6">
  <path stroke-linecap="round" stroke-linejoin="round" d="M4.26 10.147a60.438 60.438 0 0 0-.491 6.347A48.62 48.62 0 0 1 12 20.904a48.62 48.62 0 0 1 8.232-4.41 60.46 60.46 0 0 0-.491-6.347m-15.482 0a50.636 50.636 0 0 0-2.658-.813A59.906 59.906 0 0 1 12 3.493a59.903 59.903 0 0 1 10.399 5.84c-.896.248-1.783.52-2.658.814m-15.482 0A50.717 50.717 0 0 1 12 13.489a50.702 50.702 0 0 1 7.74-3.342M6.75 15a.75.75 0 1 0 0-1.5.75.75 0 0 0 0 1.5Zm0 0v-3.675A55.378 55.378 0 0 1 12 8.443m-7.007 11.55A5.981 5.981 0 0 0 6.75 15.75v-1.5" />
</symbol>


<symbol id="study-solid" xmlns="http://www.w3.org/2000/svg" viewBox="0 0 24 24" fill="currentColor" class="size-6">
  <path d="M11.7 2.805a.75.75 0 0 1 .6 0A60.65 60.65 0 0 1 22.83 8.72a.75.75 0 0 1-.231 1.337 49.948 49.948 0 0 0-9.902 3.912l-.003.002c-.114.06-.227.119-.34.18a.75.75 0 0 1-.707 0A50.88 50.88 0 0 0 7.5 12.173v-.224c0-.131.067-.248.172-.311a54.615 54.615 0 0 1 4.653-2.52.75.75 0 0 0-.65-1.352 56.123 56.123 0 0 0-4.78 2.589 1.858 1.858 0 0 0-.859 1.228 49.803 49.803 0 0 0-4.634-1.527.75.75 0 0 1-.231-1.337A60.653 60.653 0 0 1 11.7 2.805Z" />
  <path d="M13.06 15.473a48.45 48.45 0 0 1 7.666-3.282c.134 1.414.22 2.843.255 4.284a.75.75 0 0 1-.46.711 47.87 47.87 0 0 0-8.105 4.342.75.75 0 0 1-.832 0 47.87 47.87 0 0 0-8.104-4.342.75.75 0 0 1-.461-.71c.035-1.442.121-2.87.255-4.286.921.304 1.83.634 2.726.99v1.27a1.5 1.5 0 0 0-.14 2.508c-.09.38-.222.753-.397 1.11.452.213.901.434 1.346.66a6.727 6.727 0 0 0 .551-1.607 1.5 1.5 0 0 0 .14-2.67v-.645a48.549 48.549 0 0 1 3.44 1.667 2.25 2.25 0 0 0 2.12 0Z" />
  <path d="M4.462 19.462c.42-.419.753-.89 1-1.395.453.214.902.435 1.347.662a6.742 6.742 0 0 1-1.286 1.794.75.75 0 0 1-1.06-1.06Z" />
</symbol>


<symbol id="house" xmlns="http://www.w3.org/2000/svg" viewBox="0 0 24 24" fill="currentColor" class="size-6">
  <path d="M11.47 3.841a.75.75 0 0 1 1.06 0l8.69 8.69a.75.75 0 1 0 1.06-1.061l-8.689-8.69a2.25 2.25 0 0 0-3.182 0l-8.69 8.69a.75.75 0 1 0 1.061 1.06l8.69-8.689Z" />
  <path d="m12 5.432 8.159 8.159c.03.03.06.058.091.086v6.198c0 1.035-.84 1.875-1.875 1.875H15a.75.75 0 0 1-.75-.75v-4.5a.75.75 0 0 0-.75-.75h-3a.75.75 0 0 0-.75.75V21a.75.75 0 0 1-.75.75H5.625a1.875 1.875 0 0 1-1.875-1.875v-6.198a2.29 2.29 0 0 0 .091-.086L12 5.432Z" />
</symbol>

  <symbol id="code" xmlns="http://www.w3.org/2000/svg" fill="none" viewBox="0 0 24 24" stroke-width="1.5" stroke="currentColor" class="size-6">
  <path stroke-linecap="round" stroke-linejoin="round" d="M17.25 6.75 22.5 12l-5.25 5.25m-10.5 0L1.5 12l5.25-5.25m7.5-3-4.5 16.5" />
</symbol>

<symbol id="github" xmlns="http://www.w3.org/2000/svg" x="0px" y="0px" fill="currentColor" viewBox="0 0 30 30" class="size-6">
    <path fill="url(#gradiant)" d="M15,3C8.373,3,3,8.373,3,15c0,5.623,3.872,10.328,9.092,11.63C12.036,26.468,12,26.28,12,26.047v-2.051 c-0.487,0-1.303,0-1.508,0c-0.821,0-1.551-0.353-1.905-1.009c-0.393-0.729-0.461-1.844-1.435-2.526 c-0.289-0.227-0.069-0.486,0.264-0.451c0.615,0.174,1.125,0.596,1.605,1.222c0.478,0.627,0.703,0.769,1.596,0.769 c0.433,0,1.081-0.025,1.691-0.121c0.328-0.833,0.895-1.6,1.588-1.962c-3.996-0.411-5.903-2.399-5.903-5.098 c0-1.162,0.495-2.286,1.336-3.233C9.053,10.647,8.706,8.73,9.435,8c1.798,0,2.885,1.166,3.146,1.481C13.477,9.174,14.461,9,15.495,9 c1.036,0,2.024,0.174,2.922,0.483C18.675,9.17,19.763,8,21.565,8c0.732,0.731,0.381,2.656,0.102,3.594 c0.836,0.945,1.328,2.066,1.328,3.226c0,2.697-1.904,4.684-5.894,5.097C18.199,20.49,19,22.1,19,23.313v2.734 c0,0.104-0.023,0.179-0.035,0.268C23.641,24.676,27,20.236,27,15C27,8.373,21.627,3,15,3z"></path>
</symbol>

<symbol id="linkedIn" xmlns="http://www.w3.org/2000/svg" x="0px" y="0px" fill="currentColor" viewBox="0 0 50 50" class="size-6">
  <path fill="url(#gradiant)" d="M 9 4 C 6.2504839 4 4 6.2504839 4 9 L 4 41 C 4 43.749516 6.2504839 46 9 46 L 41 46 C 43.749516 46 46 43.749516 46 41 L 46 9 C 46 6.2504839 43.749516 4 41 4 L 9 4 z M 9 6 L 41 6 C 42.668484 6 44 7.3315161 44 9 L 44 41 C 44 42.668484 42.668484 44 41 44 L 9 44 C 7.3315161 44 6 42.668484 6 41 L 6 9 C 6 7.3315161 7.3315161 6 9 6 z M 14 11.011719 C 12.904779 11.011719 11.919219 11.339079 11.189453 11.953125 C 10.459687 12.567171 10.011719 13.484511 10.011719 14.466797 C 10.011719 16.333977 11.631285 17.789609 13.691406 17.933594 A 0.98809878 0.98809878 0 0 0 13.695312 17.935547 A 0.98809878 0.98809878 0 0 0 14 17.988281 C 16.27301 17.988281 17.988281 16.396083 17.988281 14.466797 A 0.98809878 0.98809878 0 0 0 17.986328 14.414062 C 17.884577 12.513831 16.190443 11.011719 14 11.011719 z M 14 12.988281 C 15.392231 12.988281 15.94197 13.610038 16.001953 14.492188 C 15.989803 15.348434 15.460091 16.011719 14 16.011719 C 12.614594 16.011719 11.988281 15.302225 11.988281 14.466797 C 11.988281 14.049083 12.140703 13.734298 12.460938 13.464844 C 12.78117 13.19539 13.295221 12.988281 14 12.988281 z M 11 19 A 1.0001 1.0001 0 0 0 10 20 L 10 39 A 1.0001 1.0001 0 0 0 11 40 L 17 40 A 1.0001 1.0001 0 0 0 18 39 L 18 33.134766 L 18 20 A 1.0001 1.0001 0 0 0 17 19 L 11 19 z M 20 19 A 1.0001 1.0001 0 0 0 19 20 L 19 39 A 1.0001 1.0001 0 0 0 20 40 L 26 40 A 1.0001 1.0001 0 0 0 27 39 L 27 29 C 27 28.170333 27.226394 27.345035 27.625 26.804688 C 28.023606 26.264339 28.526466 25.940057 29.482422 25.957031 C 30.468166 25.973981 30.989999 26.311669 31.384766 26.841797 C 31.779532 27.371924 32 28.166667 32 29 L 32 39 A 1.0001 1.0001 0 0 0 33 40 L 39 40 A 1.0001 1.0001 0 0 0 40 39 L 40 28.261719 C 40 25.300181 39.122788 22.95433 37.619141 21.367188 C 36.115493 19.780044 34.024172 19 31.8125 19 C 29.710483 19 28.110853 19.704889 27 20.423828 L 27 20 A 1.0001 1.0001 0 0 0 26 19 L 20 19 z M 12 21 L 16 21 L 16 33.134766 L 16 38 L 12 38 L 12 21 z M 21 21 L 25 21 L 25 22.560547 A 1.0001 1.0001 0 0 0 26.798828 23.162109 C 26.798828 23.162109 28.369194 21 31.8125 21 C 33.565828 21 35.069366 21.582581 36.167969 22.742188 C 37.266572 23.901794 38 25.688257 38 28.261719 L 38 38 L 34 38 L 34 29 C 34 27.833333 33.720468 26.627107 32.990234 25.646484 C 32.260001 24.665862 31.031834 23.983076 29.517578 23.957031 C 27.995534 23.930001 26.747519 24.626988 26.015625 25.619141 C 25.283731 26.611293 25 27.829667 25 29 L 25 38 L 21 38 L 21 21 z"></path>
</symbol>

<symbol id="menu" xmlns="http://www.w3.org/2000/svg" fill="none" viewBox="0 0 24 24" stroke-width="1.5" stroke="currentColor" class="size-6">
  <path stroke-linecap="round" stroke-linejoin="round" d="M3.75 6.75h16.5M3.75 12h16.5m-16.5 5.25h16.5" />
</symbol>

<symbol id="download" xmlns="http://www.w3.org/2000/svg" fill="none" viewBox="0 0 24 24" stroke-width="1.5" stroke="currentColor" class="size-6">
  <path stroke-linecap="round" stroke-linejoin="round" d="M3 16.5v2.25A2.25 2.25 0 0 0 5.25 21h13.5A2.25 2.25 0 0 0 21 18.75V16.5M16.5 12 12 16.5m0 0L7.5 12m4.5 4.5V3" />
</symbol>

<symbol id="HTML" xmlns="http://www.w3.org/2000/svg" fill="none" viewBox="0 0 128 128">
  <path fill="#E44D26" d="M19.037 113.876L9.032 1.661h109.936l-10.016 112.198l-45.019 12.48z"/><path fill="#F16529" d="m64 116.8l36.378-10.086l8.559-95.878H64z"/>
  <path fill="#EBEBEB" d="M64 52.455H45.788L44.53 38.361H64V24.599H29.489l.33 3.692l3.382 37.927H64zm0 35.743l-.061.017l-15.327-4.14l-.979-10.975H33.816l1.928 21.609l28.193 7.826l.063-.017z"/>
  <path fill="#fff" d="M63.952 52.455v13.763h16.947l-1.597 17.849l-15.35 4.143v14.319l28.215-7.82l.207-2.325l3.234-36.233l.335-3.696h-3.708zm0-27.856v13.762h33.244l.276-3.092l.628-6.978l.329-3.692z"/>
</symbol>


<symbol id="CSS" xmlns="http://www.w3.org/2000/svg" fill="none" viewBox="0 0 128 128">
  <path fill="#1572B6" d="M18.814 114.123L8.76 1.352h110.48l-10.064 112.754l-45.243 12.543l-45.119-12.526z"/>
  <path fill="#33A9DC" d="m64.001 117.062l36.559-10.136l8.601-96.354h-45.16v106.49z"/>
  <path fill="#fff" d="M64.001 51.429h18.302l1.264-14.163H64.001V23.435h34.682l-.332 3.711l-3.4 38.114h-30.95V51.429z"/>
  <path fill="#EBEBEB" d="m64.083 87.349l-.061.018l-15.403-4.159l-.985-11.031H33.752l1.937 21.717l28.331 7.863l.063-.018v-14.39z"/>
  <path fill="#fff" d="m81.127 64.675l-1.666 18.522l-15.426 4.164v14.39l28.354-7.858l.208-2.337l2.406-26.881H81.127z"/>
  <path fill="#EBEBEB" d="M64.048 23.435v13.831H30.64l-.277-3.108l-.63-7.012l-.331-3.711h34.646zm-.047 27.996v13.831H48.792l-.277-3.108l-.631-7.012l-.33-3.711h16.447z"/>
</symbol>

<symbol id="Tailwind" xmlns="http://www.w3.org/2000/svg" fill="none" viewBox="0 0 32 32">
  <path fill="#44a8b3" d="M9 13.7q1.4-5.6 7-5.6c5.6 0 6.3 4.2 9.1 4.9q2.8.7 4.9-2.1q-1.4 5.6-7 5.6c-5.6 0-6.3-4.2-9.1-4.9q-2.8-.7-4.9 2.1Zm-7 8.4q1.4-5.6 7-5.6c5.6 0 6.3 4.2 9.1 4.9q2.8.7 4.9-2.1q-1.4 5.6-7 5.6c-5.6 0-6.3-4.2-9.1-4.9q-2.8-.7-4.9 2.1Z"/>
</symbol>

<symbol id="Node.js" xmlns="http://www.w3.org/2000/svg" fill="none" viewBox="0 0 128 128">
  <path fill="#83CD29" d="M112.771 30.334L68.674 4.729c-2.781-1.584-6.402-1.584-9.205 0L14.901 30.334C12.031 31.985 10 35.088 10 38.407v51.142c0 3.319 2.084 6.423 4.954 8.083l11.775 6.688c5.628 2.772 7.617 2.772 10.178 2.772c8.333 0 13.093-5.039 13.093-13.828v-50.49c0-.713-.371-1.774-1.071-1.774h-5.623C42.594 41 41 42.061 41 42.773v50.49c0 3.896-3.524 7.773-10.11 4.48L18.723 90.73c-.424-.23-.723-.693-.723-1.181V38.407c0-.482.555-.966.982-1.213l44.424-25.561c.415-.235 1.025-.235 1.439 0l43.882 25.555c.42.253.272.722.272 1.219v51.142c0 .488.183.963-.232 1.198l-44.086 25.576c-.378.227-.847.227-1.261 0l-11.307-6.749c-.341-.198-.746-.269-1.073-.086c-3.146 1.783-3.726 2.02-6.677 3.043c-.726.253-1.797.692.41 1.929l14.798 8.754a9.294 9.294 0 0 0 4.647 1.246c1.642 0 3.25-.426 4.667-1.246l43.885-25.582c2.87-1.672 4.23-4.764 4.23-8.083V38.407c0-3.319-1.36-6.414-4.229-8.073zM77.91 81.445c-11.726 0-14.309-3.235-15.17-9.066c-.1-.628-.633-1.379-1.272-1.379h-5.731c-.709 0-1.279.86-1.279 1.566c0 7.466 4.059 16.512 23.453 16.512c14.039 0 22.088-5.455 22.088-15.109c0-9.572-6.467-12.084-20.082-13.886c-13.762-1.819-15.16-2.738-15.16-5.962c0-2.658 1.184-6.203 11.374-6.203c9.105 0 12.461 1.954 13.842 8.091c.118.577.645.991 1.24.991h5.754c.354 0 .692-.143.94-.396c.24-.272.367-.613.335-.979c-.891-10.568-7.912-15.493-22.112-15.493c-12.631 0-20.166 5.334-20.166 14.275c0 9.698 7.497 12.378 19.622 13.577c14.505 1.422 15.633 3.542 15.633 6.395c0 4.955-3.978 7.066-13.309 7.066z"/>
</symbol>

<symbol id="JavaScript" xmlns="http://www.w3.org/2000/svg" fill="none" viewBox="0 0 128 128">
  <path fill="#F0DB4F" d="M1.408 1.408h125.184v125.185H1.408z"/>
  <path fill="#323330" d="M116.347 96.736c-.917-5.711-4.641-10.508-15.672-14.981c-3.832-1.761-8.104-3.022-9.377-5.926c-.452-1.69-.512-2.642-.226-3.665c.821-3.32 4.784-4.355 7.925-3.403c2.023.678 3.938 2.237 5.093 4.724c5.402-3.498 5.391-3.475 9.163-5.879c-1.381-2.141-2.118-3.129-3.022-4.045c-3.249-3.629-7.676-5.498-14.756-5.355l-3.688.477c-3.534.893-6.902 2.748-8.877 5.235c-5.926 6.724-4.236 18.492 2.975 23.335c7.104 5.332 17.54 6.545 18.873 11.531c1.297 6.104-4.486 8.08-10.234 7.378c-4.236-.881-6.592-3.034-9.139-6.949c-4.688 2.713-4.688 2.713-9.508 5.485c1.143 2.499 2.344 3.63 4.26 5.795c9.068 9.198 31.76 8.746 35.83-5.176c.165-.478 1.261-3.666.38-8.581zM69.462 58.943H57.753l-.048 30.272c0 6.438.333 12.34-.714 14.149c-1.713 3.558-6.152 3.117-8.175 2.427c-2.059-1.012-3.106-2.451-4.319-4.485c-.333-.584-.583-1.036-.667-1.071l-9.52 5.83c1.583 3.249 3.915 6.069 6.902 7.901c4.462 2.678 10.459 3.499 16.731 2.059c4.082-1.189 7.604-3.652 9.448-7.401c2.666-4.915 2.094-10.864 2.07-17.444c.06-10.735.001-21.468.001-32.237z"/>
</symbol>

<symbol id="React" xmlns="http://www.w3.org/2000/svg" fill="none" viewBox="0 0 256 228">
  <path fill="#00D8FF" d="M210.483 73.824a171.49 171.49 0 0 0-8.24-2.597c.465-1.9.893-3.777 1.273-5.621c6.238-30.281 2.16-54.676-11.769-62.708c-13.355-7.7-35.196.329-57.254 19.526a171.23 171.23 0 0 0-6.375 5.848a155.866 155.866 0 0 0-4.241-3.917C100.759 3.829 77.587-4.822 63.673 3.233C50.33 10.957 46.379 33.89 51.995 62.588a170.974 170.974 0 0 0 1.892 8.48c-3.28.932-6.445 1.924-9.474 2.98C17.309 83.498 0 98.307 0 113.668c0 15.865 18.582 31.778 46.812 41.427a145.52 145.52 0 0 0 6.921 2.165a167.467 167.467 0 0 0-2.01 9.138c-5.354 28.2-1.173 50.591 12.134 58.266c13.744 7.926 36.812-.22 59.273-19.855a145.567 145.567 0 0 0 5.342-4.923a168.064 168.064 0 0 0 6.92 6.314c21.758 18.722 43.246 26.282 56.54 18.586c13.731-7.949 18.194-32.003 12.4-61.268a145.016 145.016 0 0 0-1.535-6.842c1.62-.48 3.21-.974 4.76-1.488c29.348-9.723 48.443-25.443 48.443-41.52c0-15.417-17.868-30.326-45.517-39.844Zm-6.365 70.984c-1.4.463-2.836.91-4.3 1.345c-3.24-10.257-7.612-21.163-12.963-32.432c5.106-11 9.31-21.767 12.459-31.957c2.619.758 5.16 1.557 7.61 2.4c23.69 8.156 38.14 20.213 38.14 29.504c0 9.896-15.606 22.743-40.946 31.14Zm-10.514 20.834c2.562 12.94 2.927 24.64 1.23 33.787c-1.524 8.219-4.59 13.698-8.382 15.893c-8.067 4.67-25.32-1.4-43.927-17.412a156.726 156.726 0 0 1-6.437-5.87c7.214-7.889 14.423-17.06 21.459-27.246c12.376-1.098 24.068-2.894 34.671-5.345a134.17 134.17 0 0 1 1.386 6.193ZM87.276 214.515c-7.882 2.783-14.16 2.863-17.955.675c-8.075-4.657-11.432-22.636-6.853-46.752a156.923 156.923 0 0 1 1.869-8.499c10.486 2.32 22.093 3.988 34.498 4.994c7.084 9.967 14.501 19.128 21.976 27.15a134.668 134.668 0 0 1-4.877 4.492c-9.933 8.682-19.886 14.842-28.658 17.94ZM50.35 144.747c-12.483-4.267-22.792-9.812-29.858-15.863c-6.35-5.437-9.555-10.836-9.555-15.216c0-9.322 13.897-21.212 37.076-29.293c2.813-.98 5.757-1.905 8.812-2.773c3.204 10.42 7.406 21.315 12.477 32.332c-5.137 11.18-9.399 22.249-12.634 32.792a134.718 134.718 0 0 1-6.318-1.979Zm12.378-84.26c-4.811-24.587-1.616-43.134 6.425-47.789c8.564-4.958 27.502 2.111 47.463 19.835a144.318 144.318 0 0 1 3.841 3.545c-7.438 7.987-14.787 17.08-21.808 26.988c-12.04 1.116-23.565 2.908-34.161 5.309a160.342 160.342 0 0 1-1.76-7.887Zm110.427 27.268a347.8 347.8 0 0 0-7.785-12.803c8.168 1.033 15.994 2.404 23.343 4.08c-2.206 7.072-4.956 14.465-8.193 22.045a381.151 381.151 0 0 0-7.365-13.322Zm-45.032-43.861c5.044 5.465 10.096 11.566 15.065 18.186a322.04 322.04 0 0 0-30.257-.006c4.974-6.559 10.069-12.652 15.192-18.18ZM82.802 87.83a323.167 323.167 0 0 0-7.227 13.238c-3.184-7.553-5.909-14.98-8.134-22.152c7.304-1.634 15.093-2.97 23.209-3.984a321.524 321.524 0 0 0-7.848 12.897Zm8.081 65.352c-8.385-.936-16.291-2.203-23.593-3.793c2.26-7.3 5.045-14.885 8.298-22.6a321.187 321.187 0 0 0 7.257 13.246c2.594 4.48 5.28 8.868 8.038 13.147Zm37.542 31.03c-5.184-5.592-10.354-11.779-15.403-18.433c4.902.192 9.899.29 14.978.29c5.218 0 10.376-.117 15.453-.343c-4.985 6.774-10.018 12.97-15.028 18.486Zm52.198-57.817c3.422 7.8 6.306 15.345 8.596 22.52c-7.422 1.694-15.436 3.058-23.88 4.071a382.417 382.417 0 0 0 7.859-13.026a347.403 347.403 0 0 0 7.425-13.565Zm-16.898 8.101a358.557 358.557 0 0 1-12.281 19.815a329.4 329.4 0 0 1-23.444.823c-7.967 0-15.716-.248-23.178-.732a310.202 310.202 0 0 1-12.513-19.846h.001a307.41 307.41 0 0 1-10.923-20.627a310.278 310.278 0 0 1 10.89-20.637l-.001.001a307.318 307.318 0 0 1 12.413-19.761c7.613-.576 15.42-.876 23.31-.876H128c7.926 0 15.743.303 23.354.883a329.357 329.357 0 0 1 12.335 19.695a358.489 358.489 0 0 1 11.036 20.54a329.472 329.472 0 0 1-11 20.722Zm22.56-122.124c8.572 4.944 11.906 24.881 6.52 51.026c-.344 1.668-.73 3.367-1.15 5.09c-10.622-2.452-22.155-4.275-34.23-5.408c-7.034-10.017-14.323-19.124-21.64-27.008a160.789 160.789 0 0 1 5.888-5.4c18.9-16.447 36.564-22.941 44.612-18.3ZM128 90.808c12.625 0 22.86 10.235 22.86 22.86s-10.235 22.86-22.86 22.86s-22.86-10.235-22.86-22.86s10.235-22.86 22.86-22.86Z"/>
</symbol>

<symbol id="MySQL" xmlns="http://www.w3.org/2000/svg" fill="none" viewBox="0 0 128 128">
  <path fill="#00618A" d="M116.948 97.807c-6.863-.187-12.104.452-16.585 2.341c-1.273.537-3.305.552-3.513 2.147c.7.733.809 1.829 1.365 2.731c1.07 1.73 2.876 4.052 4.488 5.268c1.762 1.33 3.577 2.751 5.465 3.902c3.358 2.047 7.107 3.217 10.34 5.268c1.906 1.21 3.799 2.733 5.658 4.097c.92.675 1.537 1.724 2.732 2.147v-.194c-.628-.8-.79-1.898-1.366-2.733l-2.537-2.537c-2.48-3.292-5.629-6.184-8.976-8.585c-2.669-1.916-8.642-4.504-9.755-7.609l-.195-.195c1.892-.214 4.107-.898 5.854-1.367c2.934-.786 5.556-.583 8.585-1.365l4.097-1.171v-.78c-1.531-1.571-2.623-3.651-4.292-5.073c-4.37-3.72-9.138-7.437-14.048-10.537c-2.724-1.718-6.089-2.835-8.976-4.292c-.971-.491-2.677-.746-3.318-1.562c-1.517-1.932-2.342-4.382-3.511-6.633c-2.449-4.717-4.854-9.868-7.024-14.831c-1.48-3.384-2.447-6.72-4.293-9.756c-8.86-14.567-18.396-23.358-33.169-32c-3.144-1.838-6.929-2.563-10.929-3.513c-2.145-.129-4.292-.26-6.438-.391c-1.311-.546-2.673-2.149-3.902-2.927C17.811 4.565 5.257-2.16 1.633 6.682c-2.289 5.581 3.421 11.025 5.462 13.854c1.434 1.982 3.269 4.207 4.293 6.438c.674 1.467.79 2.938 1.367 4.489c1.417 3.822 2.652 7.98 4.487 11.511c.927 1.788 1.949 3.67 3.122 5.268c.718.981 1.951 1.413 2.145 2.927c-1.204 1.686-1.273 4.304-1.95 6.44c-3.05 9.615-1.899 21.567 2.537 28.683c1.36 2.186 4.567 6.871 8.975 5.073c3.856-1.57 2.995-6.438 4.098-10.732c.249-.973.096-1.689.585-2.341v.195l3.513 7.024c2.6 4.187 7.212 8.562 11.122 11.514c2.027 1.531 3.623 4.177 6.244 5.073v-.196h-.195c-.508-.791-1.303-1.119-1.951-1.755c-1.527-1.497-3.225-3.358-4.487-5.073c-3.556-4.827-6.698-10.11-9.561-15.609c-1.368-2.627-2.557-5.523-3.709-8.196c-.444-1.03-.438-2.589-1.364-3.122c-1.263 1.958-3.122 3.542-4.098 5.854c-1.561 3.696-1.762 8.204-2.341 12.878c-.342.122-.19.038-.391.194c-2.718-.655-3.672-3.452-4.683-5.853c-2.554-6.07-3.029-15.842-.781-22.829c.582-1.809 3.21-7.501 2.146-9.172c-.508-1.666-2.184-2.63-3.121-3.903c-1.161-1.574-2.319-3.646-3.124-5.464c-2.09-4.731-3.066-10.044-5.267-14.828c-1.053-2.287-2.832-4.602-4.293-6.634c-1.617-2.253-3.429-3.912-4.683-6.635c-.446-.968-1.051-2.518-.391-3.513c.21-.671.508-.951 1.171-1.17c1.132-.873 4.284.29 5.462.779c3.129 1.3 5.741 2.538 8.392 4.294c1.271.844 2.559 2.475 4.097 2.927h1.756c2.747.631 5.824.195 8.391.975c4.536 1.378 8.601 3.523 12.292 5.854c11.246 7.102 20.442 17.21 26.732 29.269c1.012 1.942 1.45 3.794 2.341 5.854c1.798 4.153 4.063 8.426 5.852 12.488c1.786 4.052 3.526 8.141 6.05 11.513c1.327 1.772 6.451 2.723 8.781 3.708c1.632.689 4.307 1.409 5.854 2.34c2.953 1.782 5.815 3.903 8.586 5.855c1.383.975 5.64 3.116 5.852 4.879zM29.729 23.466c-1.431-.027-2.443.156-3.513.389v.195h.195c.683 1.402 1.888 2.306 2.731 3.513c.65 1.367 1.301 2.732 1.952 4.097l.194-.193c1.209-.853 1.762-2.214 1.755-4.294c-.484-.509-.555-1.147-.975-1.755c-.556-.811-1.635-1.272-2.339-1.952z"/>
</symbol>

<symbol id="Astro" xmlns="http://www.w3.org/2000/svg" fill="none" viewBox="0 0 128 128"><defs><linearGradient id="deviconAstro0" x1="882.997" x2="638.955" y1="27.113" y2="866.902" gradientTransform="scale(.1)" gradientUnits="userSpaceOnUse"><stop offset="0" stop-color="#000014"/><stop offset="1" stop-color="#150426"/></linearGradient><linearGradient id="deviconAstro1" x1="1001.68" x2="790.326" y1="652.45" y2="1094.91" gradientTransform="scale(.1)" gradientUnits="userSpaceOnUse"><stop offset="0" stop-color="#ff1639"/><stop offset="1" stop-color="#ff1639" stop-opacity="0"/></linearGradient></defs><path fill="url(#deviconAstro0)" d="M81.504 9.465c.973 1.207 1.469 2.836 2.457 6.09l21.656 71.136a90.079 90.079 0 0 0-25.89-8.765L65.629 30.28a1.833 1.833 0 0 0-3.52.004L48.18 77.902a90.104 90.104 0 0 0-26.003 8.778l21.758-71.14c.996-3.25 1.492-4.876 2.464-6.083a8.023 8.023 0 0 1 3.243-2.398c1.433-.575 3.136-.575 6.535-.575H71.72c3.402 0 5.105 0 6.543.579a7.988 7.988 0 0 1 3.242 2.402Zm0 0"/><path fill="#ff5d01" d="M84.094 90.074c-3.57 3.055-10.696 5.137-18.903 5.137c-10.07 0-18.515-3.137-20.754-7.356c-.8 2.418-.98 5.184-.98 6.954c0 0-.527 8.675 5.508 14.71a5.671 5.671 0 0 1 5.672-5.671c5.37 0 5.367 4.683 5.363 8.488v.336c0 5.773 3.527 10.719 8.543 12.805a11.62 11.62 0 0 1-1.172-5.098c0-5.508 3.23-7.555 6.988-9.938c2.989-1.894 6.309-4 8.594-8.222a15.513 15.513 0 0 0 1.875-7.41a15.55 15.55 0 0 0-.734-4.735Zm0 0"/><path fill="url(#deviconAstro1)" d="M84.094 90.074c-3.57 3.055-10.696 5.137-18.903 5.137c-10.07 0-18.515-3.137-20.754-7.356c-.8 2.418-.98 5.184-.98 6.954c0 0-.527 8.675 5.508 14.71a5.671 5.671 0 0 1 5.672-5.671c5.37 0 5.367 4.683 5.363 8.488v.336c0 5.773 3.527 10.719 8.543 12.805a11.62 11.62 0 0 1-1.172-5.098c0-5.508 3.23-7.555 6.988-9.938c2.989-1.894 6.309-4 8.594-8.222a15.513 15.513 0 0 0 1.875-7.41a15.55 15.55 0 0 0-.734-4.735Zm0 0"/>
</symbol>

<symbol id="TypeScript" xmlns="http://www.w3.org/2000/svg" fill="none" viewBox="0 0 128 128">
  <path fill="#fff" d="M22.67 47h99.67v73.67H22.67z"/>
  <path fill="#007acc" d="M1.5 63.91v62.5h125v-125H1.5zm100.73-5a15.56 15.56 0 0 1 7.82 4.5a20.58 20.58 0 0 1 3 4c0 .16-5.4 3.81-8.69 5.85c-.12.08-.6-.44-1.13-1.23a7.09 7.09 0 0 0-5.87-3.53c-3.79-.26-6.23 1.73-6.21 5a4.58 4.58 0 0 0 .54 2.34c.83 1.73 2.38 2.76 7.24 4.86c8.95 3.85 12.78 6.39 15.16 10c2.66 4 3.25 10.46 1.45 15.24c-2 5.2-6.9 8.73-13.83 9.9a38.32 38.32 0 0 1-9.52-.1a23 23 0 0 1-12.72-6.63c-1.15-1.27-3.39-4.58-3.25-4.82a9.34 9.34 0 0 1 1.15-.73L82 101l3.59-2.08l.75 1.11a16.78 16.78 0 0 0 4.74 4.54c4 2.1 9.46 1.81 12.16-.62a5.43 5.43 0 0 0 .69-6.92c-1-1.39-3-2.56-8.59-5c-6.45-2.78-9.23-4.5-11.77-7.24a16.48 16.48 0 0 1-3.43-6.25a25 25 0 0 1-.22-8c1.33-6.23 6-10.58 12.82-11.87a31.66 31.66 0 0 1 9.49.26zm-29.34 5.24v5.12H56.66v46.23H45.15V69.26H28.88v-5a49.19 49.19 0 0 1 .12-5.17C29.08 59 39 59 51 59h21.83z"/>
</symbol>

<symbol id="Git" xmlns="http://www.w3.org/2000/svg" fill="none" viewBox="0 0 432 416">
  <path fill="#000000" d="M213.5 0q88.5 0 151 62.5T427 213q0 70-41 125.5T281 416q-14 2-14-11v-58q0-27-15-40q44-5 70.5-27t26.5-77q0-34-22-58q11-26-2-57q-18-5-58 22q-26-7-54-7t-53 7q-18-12-32.5-17.5T107 88h-6q-12 31-2 57q-22 24-22 58q0 55 27 77t70 27q-11 10-13 29q-42 18-62-18q-12-20-33-22q-2 0-4.5.5t-5 3.5t8.5 9q14 7 23 31q1 2 2 4.5t6.5 9.5t13 10.5T130 371t30-2v36q0 13-14 11q-64-22-105-77.5T0 213q0-88 62.5-150.5T213.5 0z"/>
</symbol>


<symbol id="world" xmlns="http://www.w3.org/2000/svg"  viewBox="-2 -2 24 24">
  <path fill="url(#gradiant)" d="M2.252 8A8.014 8.014 0 0 0 2 10c0 .69.088 1.36.252 2H5.1a19.83 19.83 0 0 1 0-4H2.252zm.818-2h2.346c.266-1.217.65-2.307 1.121-3.214A8.035 8.035 0 0 0 3.07 6zm14.678 2H14.9a19.83 19.83 0 0 1 0 4h2.848a8.047 8.047 0 0 0 0-4zm-.818-2a8.035 8.035 0 0 0-3.467-3.214c.472.907.855 1.997 1.121 3.214h2.346zM7.112 8A17.763 17.763 0 0 0 7 10c0 .685.038 1.355.112 2h5.776a17.763 17.763 0 0 0 0-4H7.112zm.358-2h5.06a10.758 10.758 0 0 0-.783-2.177C11.119 2.568 10.447 2 10 2c-.448 0-1.119.568-1.747 1.823c-.315.632-.58 1.367-.783 2.177zm-4.4 8a8.035 8.035 0 0 0 3.467 3.214c-.472-.907-.855-1.997-1.121-3.214H3.07zm13.86 0h-2.346c-.266 1.217-.65 2.307-1.121 3.214A8.035 8.035 0 0 0 16.93 14zm-9.46 0c.203.81.468 1.545.783 2.177C8.881 17.432 9.553 18 10 18c.448 0 1.119-.568 1.747-1.823c.315-.632.58-1.367.783-2.177H7.47zM10 20C4.477 20 0 15.523 0 10S4.477 0 10 0s10 4.477 10 10s-4.477 10-10 10z"/>
</symbol>

<symbol id="code" xmlns="http://www.w3.org/2000/svg" fill="none" viewBox="0 0 24 24">
  <path fill="#000000" d="m.586 12l4.95-4.95L6.95 8.464L3.414 12l3.536 3.536l-1.414 1.414L.586 12Zm8.201 8.728l4.486-17.94l1.94.485l-4.485 17.94l-1.94-.485Zm8.263-5.192L20.586 12L17.05 8.464l1.415-1.414l4.95 4.95l-4.95 4.95l-1.415-1.414Z"/>
</symbol>

<symbol id="menu" xmlns="http://www.w3.org/2000/svg" fill="none" viewBox="0 0 24 24" stroke-width="1.5" stroke="currentColor" class="size-6">
  <path stroke-linecap="round" stroke-linejoin="round" d="M3.75 6.75h16.5M3.75 12h16.5m-16.5 5.25h16.5" />
</symbol>


  </defs>
</svg>